<svg viewBox="0 0 44 50" fill="none" xmlns="http://www.w3.org/2000/svg">
<path d="M22.8188 0.0422001C25.5455 8.9407e-08 28.2566 0.025 30.9646 0C31.1286 3.1892 32.2756 6.4378 34.6101 8.6927C36.9399 11.0037 40.2354 12.0616 43.4418 12.4194V20.8089C40.4369 20.7105 37.418 20.0854 34.6913 18.7916C33.5038 18.2541 32.3974 17.5619 31.3146 16.854C31.3005 22.9418 31.3396 29.0219 31.2755 35.0847C31.113 37.9973 30.152 40.8959 28.4582 43.2961C25.733 47.2916 21.0031 49.8964 16.145 49.9777C13.1652 50.148 10.1884 49.3354 7.6493 47.8385C3.4412 45.3571 0.4801 40.8147 0.0488002 35.9394C-0.00119985 34.8972 -0.0182995 33.8565 0.0238005 32.8393C0.398901 28.875 2.3599 25.0826 5.4038 22.5028C8.854 19.4979 13.6871 18.0666 18.2123 18.9135C18.2545 21.9996 18.1311 25.0826 18.1311 28.1687C16.0638 27.4999 13.648 27.6874 11.8417 28.9422C10.5228 29.7969 9.5212 31.1063 8.9993 32.5877C8.5681 33.644 8.6915 34.8175 8.7165 35.9394C9.2118 39.3583 12.4995 42.2319 16.0091 41.921C18.3358 41.896 20.5656 40.5459 21.7781 38.5692C22.1703 37.877 22.6094 37.1692 22.6329 36.3551C22.8376 32.6283 22.7563 28.9172 22.7813 25.1904C22.7985 16.7915 22.7563 8.4161 22.8204 0.0438004L22.8188 0.0422001Z" fill="black"/>
</svg>
