<svg viewBox="0 0 20 20" fill="none" xmlns="http://www.w3.org/2000/svg">
<path fill-rule="evenodd" clip-rule="evenodd" d="M9.87601 0C4.39901 0 0 4.43465 0 9.9585C0 14.0585 2.40701 17.4894 5.89301 19.0796C5.89301 17.2121 5.87999 17.4528 7.30299 11.3804C6.52099 9.80227 7.129 7.19678 8.88 7.19678C11.31 7.19678 9.65901 10.7995 9.37801 12.2173C9.12901 13.3053 9.959 14.1426 10.955 14.1426C12.864 14.1426 14.108 11.7152 14.108 8.87061C14.108 6.69454 12.615 5.10449 10.042 5.10449C5.46701 5.10449 4.30701 10.1996 5.89301 11.7988C6.29201 12.4028 5.89301 12.4311 5.89301 13.2217C5.61601 14.0576 3.403 12.8425 3.403 9.70752C3.403 6.8619 5.727 3.51514 10.457 3.51514C14.191 3.51514 16.681 6.27626 16.681 9.20557C16.681 13.1382 14.523 15.9839 11.37 15.9839C10.291 15.9839 9.295 15.3976 8.963 14.728C8.36 17.0735 8.23799 18.2626 7.30299 19.5815C8.21599 19.8326 9.129 20 10.125 20C15.602 20 20 15.5653 20 10.0425C19.752 4.43494 15.353 0 9.87601 0Z" fill="black"/>
</svg>
